# xmcd
#
# Track frame offsets: 
#        150
#        24460
#        38460
#        55513
#        69688
#        88108
#        105143
#        124965
#        140958
#        157010
#
# Disc length: 2398 seconds
#
# Revision: 13
# Processed by: cddbd v1.5.2PL0 Copyright (c) Steve Scherf et al.
# Submitted via: ExactAudioCopy v1.3
#
DISCID=81095c0a
DTITLE=Accept - Metal Heart 2005 Remaster MHCP-787
DYEAR=1985
DGENRE=Havy Metal
TTITLE0=Metal Heart
TTITLE1=Midnight Mover
TTITLE2=Up To The Limit
TTITLE3=Wrong Is Right
TTITLE4=Screaming For A Love-Bite
TTITLE5=Too High To Get It Right
TTITLE6=Dogs On Leads
TTITLE7=Teach Us To Survive
TTITLE8=Living For Tonite
TTITLE9=Bound To Fail
EXTD=YEAR: 1985
EXTT0=
EXTT1=
EXTT2=
EXTT3=
EXTT4=
EXTT5=
EXTT6=
EXTT7=
EXTT8=
EXTT9=
PLAYORDER=
